<?xml version="1.0" encoding="UTF-8" standalone="no"?>
<svg
   width="199.96875"
   zoomAndPan="magnify"
   viewBox="0 0 149.97656 149.97656"
   height="199.96875"
   preserveAspectRatio="xMidYMid"
   version="1.0"
   id="svg43"
   sodipodi:docname="av1.svg"
   inkscape:version="1.2.2 (b0a8486541, 2022-12-01)"
   xmlns:inkscape="http://www.inkscape.org/namespaces/inkscape"
   xmlns:sodipodi="http://sodipodi.sourceforge.net/DTD/sodipodi-0.dtd"
   xmlns="http://www.w3.org/2000/svg"
   xmlns:svg="http://www.w3.org/2000/svg">
  <sodipodi:namedview
     id="namedview45"
     pagecolor="#505050"
     bordercolor="#ffffff"
     borderopacity="1"
     inkscape:showpageshadow="0"
     inkscape:pageopacity="0"
     inkscape:pagecheckerboard="1"
     inkscape:deskcolor="#505050"
     showgrid="false"
     inkscape:zoom="2.054"
     inkscape:cx="100.04869"
     inkscape:cy="100.04869"
     inkscape:window-width="2560"
     inkscape:window-height="1392"
     inkscape:window-x="0"
     inkscape:window-y="25"
     inkscape:window-maximized="1"
     inkscape:current-layer="svg43" />
  <defs
     id="defs11">
    <clipPath
       id="f2b23cf517">
      <path
         d="m 112.5,112.5 h 150 v 150 h -150 z m 0,0"
         clip-rule="nonzero"
         id="path2" />
    </clipPath>
    <clipPath
       id="870bb32ce0">
      <path
         d="M 157,130 H 262.5 V 262.5 H 157 Z m 0,0"
         clip-rule="nonzero"
         id="path5" />
    </clipPath>
    <clipPath
       id="cfb18fd55b">
      <path
         d="m 130,209 h 115 v 53.5 H 130 Z m 0,0"
         clip-rule="nonzero"
         id="path8" />
    </clipPath>
  </defs>
  <g
     clip-path="url(#f2b23cf517)"
     id="g15"
     transform="translate(-112.52344,-112.52344)">
    <path
       fill="#ffdd3c"
       d="m 262.53516,187.53125 c 0,18.63672 -6.8086,35.70312 -18.0625,48.82031 -3.62891,4.22656 -7.72657,8.05078 -12.19532,11.3711 -12.48828,9.30859 -27.97265,14.8125 -44.74218,14.8125 -10.71875,0 -20.90235,-2.2461 -30.125,-6.29688 -5.21875,-2.28906 -10.125,-5.15234 -14.64063,-8.51562 -4.46094,-3.33204 -8.54687,-7.14454 -12.17578,-11.36719 -11.25391,-13.11719 -18.07031,-30.17969 -18.07031,-48.82422 0,-41.42578 33.58593,-75.00781 75.01172,-75.00781 28.42578,0 53.15625,15.8164 65.8789,39.13281 5.81641,10.65234 9.1211,22.87891 9.1211,35.875 z m 0,0"
       fill-opacity="1"
       fill-rule="nonzero"
       id="path13" />
  </g>
  <g
     clip-path="url(#870bb32ce0)"
     id="g19"
     transform="translate(-112.52344,-112.52344)">
    <path
       fill="#fcc33d"
       d="m 262.53516,187.53125 c 0,18.63672 -6.8086,35.70312 -18.0625,48.82031 -3.62891,4.22656 -7.72657,8.05078 -12.19532,11.3711 -12.48828,9.30859 -27.97265,14.8125 -44.74218,14.8125 -10.71875,0 -20.90235,-2.2461 -30.125,-6.29688 l 33.64062,-114.05078 6.75781,-9.07813 12.41016,-2.82812 43.19141,21.375 c 5.82031,10.65234 9.125,22.87891 9.125,35.875 z m 0,0"
       fill-opacity="1"
       fill-rule="nonzero"
       id="path17" />
  </g>
  <path
     fill="#fbcb98"
     d="m 49.781252,50.769532 c -0.7461,-0.82031 -1.89453,-1.20703 -2.53907,-0.082 -0.92968,1.60937 -0.83593,3.77343 -0.70312,5.55468 0.11328,1.44141 0.28906,2.88672 0.66797,4.29297 0.32031,1.21094 0.76953,2.88282 1.85156,3.63282 0.24609,0.17187 0.58203,0.34375 0.89063,0.40625 0.17187,0.0352 1.20703,0.0547 0.85546,-0.39454"
     fill-opacity="1"
     fill-rule="nonzero"
     id="path21" />
  <path
     fill="#fbcb98"
     d="m 100.14843,50.769532 c 0.7461,-0.82031 1.89454,-1.20703 2.53907,-0.082 0.92968,1.60937 0.83593,3.77343 0.70312,5.55468 -0.11328,1.44141 -0.28906,2.88672 -0.66797,4.29297 -0.32031,1.21094 -0.76953,2.88282 -1.85156,3.63282 -0.24609,0.17187 -0.58203,0.34375 -0.894528,0.40625 -0.16797,0.0352 -1.20313,0.0547 -0.85156,-0.39454"
     fill-opacity="1"
     fill-rule="nonzero"
     id="path23" />
  <path
     fill="#eabf8f"
     d="m 131.94922,123.82812 c -3.62891,4.22656 -7.72266,8.05078 -12.19532,11.3711 H 30.246092 c -4.46875,-3.33204 -8.55469,-7.14454 -12.17578,-11.36719 3.39844,-8.66016 10.60156,-15.57031 19.89062,-18.40235 l 15.46485,-5.937498 c 5.97265,-1.96484 5.70312,-5.26953 5.70312,-11.5625 v -13.38281 h 31.7461 v 13.3711 c 0,6.29687 0.32031,10.03906 6.30468,11.99609 l 14.894538,5.496088 c 9.28906,2.84766 16.48828,9.75782 19.875,18.41797 z m 0,0"
     fill-opacity="1"
     fill-rule="nonzero"
     id="path25" />
  <g
     clip-path="url(#cfb18fd55b)"
     id="g29"
     transform="translate(-112.52344,-112.52344)">
    <path
       fill="#ffffff"
       d="m 244.47266,236.35156 c -13.75391,16.02735 -34.15625,26.1836 -56.9375,26.1836 -22.77735,0 -43.1836,-10.15625 -56.9375,-26.17969 3.39843,-8.66016 10.60156,-15.57031 19.89453,-18.40235 l 15.46484,-5.9375 c 1.73828,-0.57812 2.94922,-1.26562 3.79297,-2.10546 6.07812,5.58984 15.31641,6.64843 23.35547,5.51953 4.55078,-0.64063 9.37109,-2.09375 13.45312,-4.54297 0.81641,0.60547 1.84375,1.12109 3.14844,1.55078 l 14.89453,5.49609 c 9.28516,2.84766 16.48438,9.75782 19.8711,18.41797 z m 0,0"
       fill-opacity="1"
       fill-rule="nonzero"
       id="path27" />
  </g>
  <path
     fill="#092838"
     d="m 56.902342,97.683592 c -0.82031,0.70703 -1.94141,1.30078 -3.46875,1.80859 l -15.46484,5.937498 c -9.29297,2.83204 -16.4961,9.74219 -19.89453,18.40235 9.98437,11.63281 23.47265,20.16406 38.82812,23.97656 z m 0,0"
     fill-opacity="1"
     fill-rule="nonzero"
     id="path31" />
  <path
     fill="#092838"
     d="M 112.07812,105.41015 97.183592,99.914062 c -0.82812,-0.26953 -1.52734,-0.58203 -2.14844,-0.92188 v 48.316408 c 14.562498,-4.02344 27.347658,-12.32422 36.914068,-23.48047 -3.38672,-8.66015 -10.58594,-15.57031 -19.8711,-18.41797 z m 0,0"
     fill-opacity="1"
     fill-rule="nonzero"
     id="path33" />
  <path
     fill="#fbcb98"
     d="m 100.27734,48.039062 c -0.0625,-17.92188 -11.035158,-30.79688 -25.218748,-30.79688 -0.004,0 -0.0156,0 -0.0234,0 -0.004,0 -0.0156,0 -0.0234,0 -14.1836,0 -25.15625,12.875 -25.21875,30.79688 -0.0312,8.17578 0.2539,13.55469 1.08203,19.48828 2.58203,18.4375 19.55468,23.60938 24.13672,23.60938 5.61718,0 21.60937,-5.17188 24.1914,-23.60938 0.824218,-5.93359 1.105468,-11.3125 1.074218,-19.48828 z m 0,0"
     fill-opacity="1"
     fill-rule="nonzero"
     id="path35" />
  <path
     fill="#441d00"
     d="m 94.957032,68.507812 c -2.83594,3.02734 -6.95703,4.02734 -10.73828,2.08984 -1.47657,-0.76172 -2.72657,-1.90234 -4.19532,-2.66406 -2.67578,-1.39062 -5.96875,-1.39062 -8.76953,-0.26172 -1.6914,0.6836 -3.19922,1.7461 -4.84375,2.53516 -2.05859,0.98437 -5.35156,1.60156 -7.5625,0.74219 -2.14453,-0.82813 -3.53515,-3.08204 -4.52343,-5.03907 -2.35547,-4.70312 -3.83204,-9.57812 -4.53125,-14.59375 0.0508,6.40625 0.35937,11.11328 1.07421,16.21094 2.58204,18.4375 19.5586,23.60938 24.14063,23.60938 5.61328,0 21.60547,-5.17188 24.1875,-23.60938 0.38281,-2.74219 0.914058,-8.43359 1.082028,-11.27344 -0.957028,3.01172 -2.933588,9.70703 -5.320308,12.25391 z m -12.89453,12.47656 c -0.28125,0.0898 -0.57032,0.14453 -0.86328,0.14844 -2.51954,0.0586 -3.71875,-4.08594 -6.32813,-3.00391 -2.66797,1.10547 -4.17578,5.33203 -7.69141,1.46875 -3.23437,-3.55859 1.6211,-6.35547 3.80469,-7.51953 4.48047,-2.39453 10.33203,-1.0664 13.6875,2.92969 1.66016,1.98047 -0.3125,5.23828 -2.60937,5.97656 z m 0,0"
     fill-opacity="1"
     fill-rule="nonzero"
     id="path37" />
  <path
     fill="#441d00"
     d="m 100.27734,48.039062 c -0.0273,-8.01953 -2.246088,-15.02344 -5.949218,-20.32031 -0.875,2.01172 -1.76953,4.01172 -2.71875,5.99218 -0.52734,1.10938 0.0742,3.96875 0.15625,5.20313 0.12891,1.92187 0.375,3.85156 0.90235,5.71094 0.79687,2.77343 1.21484,6.0664 3.28125,8.26562 0.44921,0.47656 1,0.83594 1.46484,1.29297 0.63672,0.63672 1.07812,1.46484 1.24609,2.34766 0.23047,1.1875 0.0703,2.61718 1.00782,3.3789 1.367178,-3.60156 0.621088,-8.03515 0.609368,-11.87109 z m 0,0"
     fill-opacity="1"
     fill-rule="nonzero"
     id="path39" />
  <path
     fill="#441d00"
     d="m 53.414062,54.160152 c 0.58984,-0.6875 1.22266,-1.32812 1.85937,-1.91406 1.42969,-1.30859 2.60547,-2.65234 3.10938,-4.55469 0.55859,-2.08593 0.38281,-4.29687 0.99219,-6.3789 0.21484,-0.72266 0.53125,-1.44141 1.04687,-1.98828 1.04688,-1.09766 2.75781,-1.32032 4.2461,-0.9961 1.48828,0.31641 2.82812,1.08985 4.1914,1.75 6.75391,3.25781 15.06641,3.71094 21.65625,0.14063 4.125,-2.23438 7.6875,-5.99219 12.355468,-6.39063 0.82422,-0.0703 1.76563,0.0156 2.28125,0.66016 -1.71094,-3.61328 -5.554688,-6.10938 -9.546868,-6.20703 0.16796,-1.14063 1.36718,-1.79297 2.44531,-2.21094 2.820308,-1.09766 5.785148,-1.82813 8.789058,-2.16797 -3.89062,-2.88281 -9.132808,-3.86328 -13.804688,-2.58203 0.6875,-1.89844 2.76953,-2.83203 4.64844,-3.57422 -2.93359,-2.82812 -7.26562,-3.65234 -11.33984,-3.78125 -8.21094,-0.26562 -16.47657,1.79297 -23.60547,5.86719 -0.73438,0.41797 -1.47266,0.87109 -2.3086,1.01172 -0.83593,0.14062 -1.79296,-0.0977 -2.2539,-0.80469 -0.6211,-0.95703 -0.0859,-2.22266 0.44922,-3.23438 -6.39844,2.3125 -8.06641,10.125 -8.80469,16.07032 -1.20313,9.68359 -0.34375,19.5 0.51172,29.22265 -0.25,-2.98437 1.1875,-5.71484 3.08203,-7.9375 z m 0,0"
     fill-opacity="1"
     fill-rule="nonzero"
     id="path41" />
</svg>
