<?xml version="1.0" encoding="UTF-8" standalone="no"?>
<svg
   width="199.70312"
   zoomAndPan="magnify"
   viewBox="0 0 149.77734 149.22656"
   height="198.96875"
   preserveAspectRatio="xMidYMid"
   version="1.0"
   id="svg223"
   sodipodi:docname="av2.svg"
   inkscape:version="1.2.2 (b0a8486541, 2022-12-01)"
   xmlns:inkscape="http://www.inkscape.org/namespaces/inkscape"
   xmlns:sodipodi="http://sodipodi.sourceforge.net/DTD/sodipodi-0.dtd"
   xmlns="http://www.w3.org/2000/svg"
   xmlns:svg="http://www.w3.org/2000/svg">
  <sodipodi:namedview
     id="namedview225"
     pagecolor="#505050"
     bordercolor="#ffffff"
     borderopacity="1"
     inkscape:showpageshadow="0"
     inkscape:pageopacity="0"
     inkscape:pagecheckerboard="1"
     inkscape:deskcolor="#505050"
     showgrid="false"
     inkscape:zoom="2.054"
     inkscape:cx="100.04869"
     inkscape:cy="99.561831"
     inkscape:window-width="2560"
     inkscape:window-height="1392"
     inkscape:window-x="0"
     inkscape:window-y="25"
     inkscape:window-maximized="1"
     inkscape:current-layer="svg223" />
  <defs
     id="defs185">
    <clipPath
       id="82d7b93ed4">
      <path
         d="m 112.5,112.78125 h 150 v 149.25 h -150 z m 0,0"
         clip-rule="nonzero"
         id="path170" />
    </clipPath>
    <clipPath
       id="a872dd9ef8">
      <path
         d="m 177,137 h 85.5 V 262.03125 H 177 Z m 0,0"
         clip-rule="nonzero"
         id="path173" />
    </clipPath>
    <clipPath
       id="64c3381bda">
      <path
         d="m 133,193 h 108 v 69.03125 H 133 Z m 0,0"
         clip-rule="nonzero"
         id="path176" />
    </clipPath>
    <clipPath
       id="540c40ae20">
      <path
         d="m 133,205 h 108 v 57.03125 H 133 Z m 0,0"
         clip-rule="nonzero"
         id="path179" />
    </clipPath>
    <clipPath
       id="59c1208711">
      <path
         d="m 185,207 h 6 v 55.03125 h -6 z m 0,0"
         clip-rule="nonzero"
         id="path182" />
    </clipPath>
  </defs>
  <g
     clip-path="url(#82d7b93ed4)"
     id="g195"
     transform="translate(-112.58203,-112.80469)">
    <path
       fill="#aad8f4"
       d="m 262.03125,187.43359 c 0,18.54688 -6.78516,35.52735 -17.99609,48.57813 -1.01172,1.18359 -2.06641,2.33203 -3.15625,3.44922 -2.77735,2.85547 -5.78907,5.49218 -8.99219,7.86718 -12.44141,9.26172 -27.86719,14.73829 -44.57422,14.73829 -0.22656,0 -0.44922,0 -0.67969,-0.008 -10.42578,-0.0859 -20.33984,-2.3164 -29.33203,-6.25781 -5.19922,-2.27734 -10.08594,-5.125 -14.58594,-8.47266 -3.25781,-2.42578 -6.30859,-5.10546 -9.125,-8.01953 -1.03906,-1.0664 -2.03906,-2.16406 -3.00781,-3.28906 -11.21094,-13.05469 -18,-30.03125 -18,-48.58594 0,-41.21484 33.46094,-74.6289 74.73047,-74.6289 28.31641,0 52.95703,15.73828 65.63281,38.9375 4.20703,7.6914 7.08985,16.20312 8.35938,25.23828 0.48047,3.41797 0.72656,6.91015 0.72656,10.45312 z m 0,0"
       fill-opacity="1"
       fill-rule="nonzero"
       id="path193" />
  </g>
  <g
     clip-path="url(#a872dd9ef8)"
     id="g199"
     transform="translate(-112.58203,-112.80469)">
    <path
       fill="#5ec1ed"
       d="m 262.35937,187.43359 c 0,18.54688 -6.78515,35.52735 -17.99609,48.57813 -1.01172,1.18359 -2.06641,2.33203 -3.15625,3.44922 -2.77734,2.85547 -5.78906,5.49218 -8.99219,7.86718 -12.4414,9.26172 -27.86718,14.73829 -44.57422,14.73829 -0.23046,0 -0.44921,0 -0.67968,-0.008 l -9.04297,-16.04687 32.01172,-108.32031 51.70312,39.28906 c 0.48047,3.41797 0.72656,6.91015 0.72656,10.45312 z m 0,0"
       fill-opacity="1"
       fill-rule="nonzero"
       id="path197" />
  </g>
  <path
     fill="#092838"
     d="m 108.39453,53.929682 c -0.0859,-6.89062 -1.42578,-14.09765 -4.48437,-20.3125 -6.261721,-12.71875 -23.082031,-18.99609 -36.542971,-16.91406 -7.10547,1.10156 -13.94141,5.52344 -19.01953,10.44922 -6.38282,6.19141 -8.90625,18.29688 -9.01172,26.77734 -0.10547,8.28125 2.19922,19.76954 -5.90625,24.91407 -0.98828,0.63281 -1.39063,1.89062 -0.86328,2.9375 3.00781,5.96093 9.44531,9.80468 15.88672,12.01562 4.99609,1.71485 10.2539,2.72656 15.54687,2.82813 4.30469,0.082 8.53906,0.61328 9.85156,-4.0625 0,-0.004 0.008,-0.0156 0.008,-0.0234 0,0.008 0.004,0.0195 0.004,0.0234 1.31641,4.67578 5.55469,4.14453 9.85156,4.0625 5.29297,-0.10157 10.55079,-1.11328 15.55079,-2.82813 6.437501,-2.21094 12.875001,-6.05469 15.886711,-12.01562 0.52735,-1.04688 0.1211,-2.30469 -0.86718,-2.9375 -8.08594,-5.14453 -5.78907,-16.63282 -5.89063,-24.91407 z m 0,0"
     fill-opacity="1"
     fill-rule="nonzero"
     id="path201" />
  <g
     clip-path="url(#64c3381bda)"
     id="g205"
     transform="translate(-112.58203,-112.80469)">
    <path
       fill="#dd915c"
       d="m 221.67578,220.26953 -17.96484,-5.84375 c -3.31641,-1.07812 -5.5625,-4.16797 -5.5625,-7.64844 v -13.76562 h -21.76172 v 13.9375 c 0,3.50781 -2.27735,6.60937 -5.62891,7.66797 l -17.99609,5.67578 c -9.32031,2.83594 -16.37891,10.08203 -19.17969,19.01953 2.82031,2.91406 5.87109,5.59375 9.12891,8.02344 4.49609,3.34375 9.38281,6.19531 14.58593,8.46875 9.1836,4.03125 19.33204,6.26562 30.01172,6.26562 16.70313,0 32.12891,-5.47265 44.57032,-14.73437 3.20703,-2.375 6.21484,-5.01563 8.99218,-7.8711 -2.7539,-9.01953 -9.82812,-16.32812 -19.19531,-19.19531 z m 0,0"
       fill-opacity="1"
       fill-rule="nonzero"
       id="path203" />
  </g>
  <g
     clip-path="url(#540c40ae20)"
     id="g209"
     transform="translate(-112.58203,-112.80469)">
    <path
       fill="#ffdd3c"
       d="m 221.67578,220.26953 -17.96484,-5.84375 c -3.31641,-1.07812 -5.5625,-4.16797 -5.5625,-7.64844 v -0.48047 c -2.44141,0.6211 -4.9961,0.87891 -7.39844,0.97657 -4.70313,0.19531 -9.76563,-0.21485 -14.36328,-1.60547 v 1.28125 c 0,3.50781 -2.27735,6.60937 -5.62891,7.66797 l -17.99609,5.67578 c -9.32031,2.83594 -16.37891,10.08203 -19.17969,19.01953 2.82031,2.91406 5.87109,5.59375 9.12891,8.02344 4.49609,3.34375 9.38281,6.19531 14.58593,8.46875 9.1836,4.03125 19.33204,6.26562 30.01172,6.26562 16.70313,0 32.12891,-5.47265 44.57032,-14.73437 3.20703,-2.375 6.21484,-5.01563 8.99218,-7.8711 -2.7539,-9.01953 -9.82812,-16.32812 -19.19531,-19.19531 z m 0,0"
       fill-opacity="1"
       fill-rule="nonzero"
       id="path207" />
  </g>
  <g
     clip-path="url(#59c1208711)"
     id="g213"
     transform="translate(-112.58203,-112.80469)">
    <path
       fill="#fcc33d"
       d="m 185.56641,207.21094 v 54.82422 c 0.58203,0.0195 1.16015,0.0312 1.74609,0.0312 0.91406,0 1.82812,-0.0234 2.73437,-0.0586 v -54.71484 c -1.47656,0.0391 -2.97265,0.0117 -4.48046,-0.082 z m 0,0"
       fill-opacity="1"
       fill-rule="nonzero"
       id="path211" />
  </g>
  <path
     fill="#f5a065"
     d="m 98.164059,49.378902 c -0.0586,-16.64453 -10.25781,-28.59765 -23.44922,-28.59765 -0.008,0 -0.0195,0 -0.0234,0 -0.008,0 -0.0195,0 -0.0234,0 -13.1875,0 -23.39453,11.95312 -23.45313,28.59765 -0.0273,7.58985 0.1836,9.48047 0.95704,14.98438 2.40234,17.11719 18.23437,25.02734 22.49609,25.02734 5.21875,0 20.01562,-7.91015 22.41797,-25.02734 0.77344,-5.50391 1.10547,-7.39453 1.07812,-14.98438 z m 0,0"
     fill-opacity="1"
     fill-rule="nonzero"
     id="path215" />
  <path
     fill="#f5a065"
     d="m 51.214839,51.914062 c -0.69531,-0.75781 -1.76171,-1.125 -2.35937,-0.0781 -0.86719,1.5 -0.77344,3.50391 -0.64844,5.16016 0.0977,1.33984 0.26953,2.6875 0.6211,3.98438 0.30468,1.1289 0.71875,2.67578 1.71875,3.375 0.23046,0.16015 0.54687,0.3164 0.83203,0.38281 0.16015,0.0352 1.12109,0.0508 0.79687,-0.3711"
     fill-opacity="1"
     fill-rule="nonzero"
     id="path217" />
  <path
     fill="#f5a065"
     d="m 98.039059,51.914062 c 0.69922,-0.75781 1.76172,-1.125 2.359381,-0.0781 0.86719,1.5 0.77344,3.50391 0.65234,5.16016 -0.10156,1.33984 -0.26953,2.6875 -0.62109,3.98438 -0.30469,1.1289 -0.718751,2.67578 -1.722661,3.375 -0.22656,0.16015 -0.54297,0.3164 -0.83203,0.38281 -0.15625,0.0352 -1.11719,0.0508 -0.79687,-0.3711"
     fill-opacity="1"
     fill-rule="nonzero"
     id="path219" />
  <path
     fill="#092838"
     d="m 95.574219,60.195312 c 0.60156,0.57422 1.19922,1.15625 1.79687,1.73437 -0.10546,-0.10156 1.77735,-4.52343 1.92188,-5.01562 0.56641,-1.87109 0.902341,-3.75391 1.246091,-5.67578 0.6875,-3.79688 0.0703,-8.01563 -0.4375,-11.82813 -0.753901,-5.61718 -2.582031,-11.16406 -7.164061,-14.83593 -5.16016,-4.13672 -12.01953,-5.83594 -18.53906,-5.83594 -13.1875,0 -24.16016,10.67969 -24.21875,27.32422 -0.0195,5.37109 1.11719,11.20312 1.44531,14.16406 2.61328,-1.95313 5.0625,-4.10547 7.30469,-6.53516 1.88281,-2.03515 6.36328,-10.57812 7.25,-10.21484 0.14062,0.0586 0.24609,0.19141 0.29687,0.33984 0.85938,2.46094 1.92188,4.95313 3.64844,6.94532 1.91797,2.19921 4.33594,3.08593 7.07813,3.82421 -0.58204,-1.17578 -1.34375,-4.66796 -1.30079,-5.98046 2.98829,4.53125 8.64063,9.84765 14,10.69531 -0.49609,-1.83985 -1.38281,-3.42188 -1.19921,-5.36328 2.33593,2.03515 4.625,4.125 6.87109,6.25781 z m 0,0"
     fill-opacity="1"
     fill-rule="nonzero"
     id="path221" />
</svg>
