<?xml version="1.0" encoding="UTF-8" standalone="no"?>
<svg
   width="199.96875"
   zoomAndPan="magnify"
   viewBox="0 0 149.97656 149.97656"
   height="199.96875"
   preserveAspectRatio="xMidYMid"
   version="1.0"
   id="svg393"
   sodipodi:docname="av3.svg"
   inkscape:version="1.2.2 (b0a8486541, 2022-12-01)"
   xmlns:inkscape="http://www.inkscape.org/namespaces/inkscape"
   xmlns:sodipodi="http://sodipodi.sourceforge.net/DTD/sodipodi-0.dtd"
   xmlns="http://www.w3.org/2000/svg"
   xmlns:svg="http://www.w3.org/2000/svg">
  <sodipodi:namedview
     id="namedview395"
     pagecolor="#505050"
     bordercolor="#ffffff"
     borderopacity="1"
     inkscape:showpageshadow="0"
     inkscape:pageopacity="0"
     inkscape:pagecheckerboard="1"
     inkscape:deskcolor="#505050"
     showgrid="false"
     inkscape:zoom="2.054"
     inkscape:cx="100.53554"
     inkscape:cy="100.53554"
     inkscape:window-width="2560"
     inkscape:window-height="1392"
     inkscape:window-x="0"
     inkscape:window-y="25"
     inkscape:window-maximized="1"
     inkscape:current-layer="svg393" />
  <defs
     id="defs353">
    <clipPath
       id="11054a4135">
      <path
         d="m 112.5,112.5 h 150 v 150 h -150 z m 0,0"
         clip-rule="nonzero"
         id="path344" />
    </clipPath>
    <clipPath
       id="dc1f6a37ec">
      <path
         d="M 157,130 H 262.5 V 262.5 H 157 Z m 0,0"
         clip-rule="nonzero"
         id="path347" />
    </clipPath>
    <clipPath
       id="377adc9656">
      <path
         d="m 130,209 h 115 v 53.5 H 130 Z m 0,0"
         clip-rule="nonzero"
         id="path350" />
    </clipPath>
  </defs>
  <rect
     x="-150.02344"
     width="450"
     fill="#ffffff"
     y="-150.02344"
     height="450"
     fill-opacity="1"
     id="rect357"
     style="fill:none" />
  <g
     clip-path="url(#11054a4135)"
     id="g363"
     transform="translate(-112.52344,-112.52344)">
    <path
       fill="#aad8f4"
       d="m 262.53516,187.53125 c 0,18.63672 -6.8086,35.70312 -18.0625,48.82031 -3.62891,4.22656 -7.72657,8.05078 -12.19532,11.3711 -12.48828,9.30859 -27.97265,14.8125 -44.74218,14.8125 -10.71875,0 -20.90235,-2.2461 -30.125,-6.29688 -5.21875,-2.28906 -10.125,-5.15234 -14.64063,-8.51562 -4.46094,-3.33204 -8.54687,-7.14454 -12.17578,-11.36719 -11.25391,-13.11719 -18.07031,-30.17969 -18.07031,-48.82422 0,-41.42578 33.58593,-75.00781 75.01172,-75.00781 28.42578,0 53.15625,15.8164 65.8789,39.13281 5.81641,10.65234 9.1211,22.87891 9.1211,35.875 z m 0,0"
       fill-opacity="1"
       fill-rule="nonzero"
       id="path361" />
  </g>
  <g
     clip-path="url(#dc1f6a37ec)"
     id="g367"
     transform="translate(-112.52344,-112.52344)">
    <path
       fill="#5ec1ed"
       d="m 262.53516,187.53125 c 0,18.63672 -6.8086,35.70312 -18.0625,48.82031 -3.62891,4.22656 -7.72657,8.05078 -12.19532,11.3711 -12.48828,9.30859 -27.97265,14.8125 -44.74218,14.8125 -10.71875,0 -20.90235,-2.2461 -30.125,-6.29688 l 33.64062,-114.05078 17.41797,0.25781 -2.32422,-11.57031 47.26953,20.78125 c 5.81641,10.65234 9.1211,22.87891 9.1211,35.875 z m 0,0"
       fill-opacity="1"
       fill-rule="nonzero"
       id="path365" />
  </g>
  <path
     fill="#472312"
     d="m 62.02343,15.76953 c -3.71093,1.3125 -6.96093,3.68359 -9.92578,6.27344 -8.84375,7.73437 -14.38281,18.76953 -14.07031,30.69921 0.0156,0.59766 0.0742,1.25391 0.50391,1.66407 0.45312,0.4375 1.1289,0.25 1.39843,-0.25 0.19532,1.39453 -0.25781,2.09375 -0.78125,3.27343 -0.66406,1.48829 -0.875,3.12891 -1.07421,4.73829 -0.46094,3.73437 -0.35938,7.53906 0.3164,11.23828 0.11328,0.61718 0.30469,1.3164 0.875,1.58203 0.80078,0.375 1.89063,-0.33985 2.57031,0.21875 0.23438,0.1914 0.35157,0.5 0.4375,0.79297 0.44532,1.59375 0.28516,3.28515 0.16407,4.9375 -0.125,1.65234 -0.19922,3.36328 0.39843,4.91015 0.60157,1.54688 2.05079,2.875 3.70313,2.81641 0.95312,-0.0352 1.83594,-0.50391 2.77734,-0.64453 -0.16406,0.0234 0.60547,3.29687 0.69532,3.58984 0.33984,1.15625 0.64062,1.71875 1.47265,2.5 1.67188,1.57031 3.83985,2.50391 5.97656,3.25391 3.51563,1.23437 7.48829,2.33203 10.85157,0.72656 3.30468,-1.57422 4.95703,-5.25 6.34765,-8.63672 2.59375,-6.33203 5.20313,-12.71094 6.45703,-19.4375 1.0625,-5.74219 1.1211,-11.60937 1.12891,-17.44922 0.0117,-6.35547 -0.0312,-12.75781 -1.21875,-19.0039 C 79.99218,28.13672 79.30468,22.35547 76.23047,17.77734 73.21093,13.28125 67.02734,14 62.02343,15.76953 Z m 0,0"
     fill-opacity="1"
     fill-rule="nonzero"
     id="path369" />
  <path
     fill="#472312"
     d="m 88.5,15.76953 c 3.71093,1.3125 6.96093,3.68359 9.92578,6.27344 8.84375,7.73437 14.38281,18.76953 14.07031,30.69921 -0.0156,0.59766 -0.0742,1.25391 -0.50391,1.66407 -0.45312,0.4375 -1.1289,0.25 -1.39843,-0.25 -0.19532,1.39453 0.25781,2.09375 0.78125,3.27343 0.66406,1.48829 0.875,3.12891 1.07422,4.73829 0.46093,3.73437 0.35937,7.53906 -0.31641,11.23828 -0.11328,0.61718 -0.30469,1.3164 -0.875,1.58203 -0.80078,0.375 -1.89063,-0.33985 -2.57031,0.21875 -0.23438,0.1914 -0.35157,0.5 -0.4375,0.79297 -0.44532,1.59375 -0.28516,3.28515 -0.16407,4.9375 0.125,1.65234 0.19922,3.36328 -0.39843,4.91015 -0.60157,1.54688 -2.05078,2.875 -3.70313,2.81641 -0.95312,-0.0352 -1.83594,-0.50391 -2.77734,-0.64453 0.16406,0.0234 -0.60547,3.29687 -0.69531,3.58984 -0.33985,1.15625 -0.64063,1.71875 -1.47266,2.5 -1.67188,1.57031 -3.83984,2.50391 -5.97656,3.25391 -3.51563,1.23437 -7.48828,2.33203 -10.85157,0.72656 -3.30468,-1.57422 -4.95703,-5.25 -6.34765,-8.63672 -2.59375,-6.33203 -5.20313,-12.71094 -6.45703,-19.4375 -1.0625,-5.74219 -1.1211,-11.60937 -1.12891,-17.44922 -0.0117,-6.35547 0.0312,-12.75781 1.21875,-19.0039 1.03516,-5.42578 1.72266,-11.20703 4.79688,-15.78516 C 77.3164,13.28125 83.49609,14 88.5,15.76953 Z m 0,0"
     fill-opacity="1"
     fill-rule="nonzero"
     id="path371" />
  <path
     fill="#f8b994"
     d="m 49.78125,50.76953 c -0.7461,-0.82031 -1.89453,-1.20703 -2.53907,-0.082 -0.92968,1.60937 -0.83593,3.77343 -0.70312,5.55468 0.11328,1.44141 0.28906,2.88672 0.66797,4.29297 0.32031,1.21094 0.76953,2.88282 1.85156,3.63282 0.24609,0.17187 0.58203,0.34375 0.89063,0.40625 0.17187,0.0352 1.20703,0.0547 0.85546,-0.39454"
     fill-opacity="1"
     fill-rule="nonzero"
     id="path373" />
  <path
     fill="#f8b994"
     d="m 100.14843,50.76953 c 0.7461,-0.82031 1.89454,-1.20703 2.53907,-0.082 0.92968,1.60937 0.83593,3.77343 0.70312,5.55468 -0.11328,1.44141 -0.28906,2.88672 -0.66797,4.29297 -0.32031,1.21094 -0.76953,2.88282 -1.85156,3.63282 -0.24609,0.17187 -0.58203,0.34375 -0.89453,0.40625 -0.16797,0.0352 -1.20313,0.0547 -0.85156,-0.39454"
     fill-opacity="1"
     fill-rule="nonzero"
     id="path375" />
  <path
     fill="#f8b994"
     d="m 131.94922,123.82812 c -3.62891,4.22656 -7.72266,8.05078 -12.19532,11.3711 H 30.24609 c -4.46875,-3.33204 -8.55469,-7.14454 -12.17578,-11.36719 3.39844,-8.66016 10.60156,-15.57031 19.89062,-18.40235 l 15.46485,-5.9375 c 5.97265,-1.96484 5.70312,-5.26953 5.70312,-11.5625 V 74.54687 H 90.875 v 13.3711 c 0,6.29687 0.32031,10.03906 6.30468,11.99609 l 14.89454,5.49609 c 9.28906,2.84766 16.48828,9.75782 19.875,18.41797 z m 0,0"
     fill-opacity="1"
     fill-rule="nonzero"
     id="path377" />
  <g
     clip-path="url(#377adc9656)"
     id="g381"
     transform="translate(-112.52344,-112.52344)">
    <path
       fill="#ed6e4a"
       d="m 244.47266,236.35156 c -13.75391,16.02735 -34.15625,26.1836 -56.9375,26.1836 -22.77735,0 -43.1836,-10.15625 -56.9375,-26.17969 3.39843,-8.66016 10.60156,-15.57031 19.89453,-18.40235 l 15.46484,-5.9375 c 1.73828,-0.57812 2.94922,-1.26562 3.79297,-2.10546 0.0586,0.0586 0.12109,0.10937 0.17969,0.16796 9.91015,9.27344 25.12109,9.9375 35.71484,1.46094 0.34375,-0.27734 0.64844,-0.49609 0.90625,-0.65234 0.81641,0.60547 1.84766,1.12109 3.15234,1.55078 l 14.89454,5.49609 c 9.28906,2.84766 16.48828,9.75782 19.875,18.41797 z m 0,0"
       fill-opacity="1"
       fill-rule="nonzero"
       id="path379" />
  </g>
  <path
     fill="#f8b994"
     d="M 100.27734,48.03906 C 100.21484,30.11718 89.24218,17.24218 75.05859,17.24218 c -0.004,0 -0.0156,0 -0.0234,0 -0.004,0 -0.0156,0 -0.0234,0 -14.1836,0 -25.15625,12.875 -25.21875,30.79688 -0.0312,8.17578 0.2539,13.55469 1.08203,19.48828 2.58203,18.4375 19.55468,23.60938 24.13672,23.60938 5.61718,0 21.60937,-5.17188 24.1914,-23.60938 0.82422,-5.93359 1.10547,-11.3125 1.07422,-19.48828 z m 0,0"
     fill-opacity="1"
     fill-rule="nonzero"
     id="path383" />
  <path
     fill="#472312"
     d="m 94.95703,68.50781 c -2.69922,2.88281 -6.26172,4.375 -10.58594,1.98047 C 83.10937,69.78906 82.03125,68.78906 80.76953,68.08593 77.28906,66.14453 72.84375,66.75781 69.32422,68.625 66.625,70.0625 63.77343,72.40625 60.5039,71.65625 57.64843,71 55.57812,68.39843 54.32422,65.90234 51.96875,61.19922 50.49218,56.32422 49.79297,51.30859 c 0.0508,6.41016 0.35937,11.11328 1.07421,16.21094 2.58204,18.4414 19.5586,23.60937 24.14063,23.60937 5.61328,0 21.60547,-5.16797 24.1875,-23.60937 0.38281,-2.73828 0.64844,-5.36719 0.82422,-8.20703 -0.96485,3.01562 -2.67578,6.64843 -5.0625,9.19531 z m 0,0"
     fill-opacity="1"
     fill-rule="nonzero"
     id="path385" />
  <path
     fill="#472312"
     d="m 100.27734,48.03906 c -0.0273,-8.01953 -2.24609,-15.02344 -5.94922,-20.32031 -0.875,2.01172 -1.76953,4.01172 -2.71875,5.99218 0.0742,5.52735 0.0859,11.66407 3.67578,16.14454 1.78907,2.22265 3.91016,3.82812 4.57422,6.77343 0.125,0.54688 0.13281,1.17969 0.0937,1.83203 0.043,-0.0586 0.0859,-0.125 0.125,-0.18359 0.16016,-3.01172 0.21875,-6.29687 0.19922,-10.23828 z m 0,0"
     fill-opacity="1"
     fill-rule="nonzero"
     id="path387" />
  <path
     fill="#472312"
     d="m 49.85156,54.08984 c 0.0586,2.29297 0.44141,4.53516 0.75781,6.80469 0,0 1.21875,-2.15235 2.63281,-3.14063 C 61.8164,51.79687 76.98047,36.75 76.98047,36.75 c 0,0 5.58203,8.09765 9.41015,13.23828 2.9336,3.94531 9.04688,9.02344 13.62891,10.90625 0.52344,-2.94531 1.71094,-10.60938 1.72265,-13.70313 0.0117,-5.76562 -2.79296,-14.77343 -4.63281,-18.23047 -3.22265,-6.05078 -10.92969,-11.99609 -18.04687,-12.375 -6.96094,-0.36328 -14.54688,0.70704 -20.00782,5.11719 -8.99218,7.26172 -9.22656,15.33594 -9.26953,26.33203 -0.004,2.02344 0.0117,4.03907 0.0664,6.05469 z m 0,0"
     fill-opacity="1"
     fill-rule="nonzero"
     id="path389" />
  <path
     fill="#f8b994"
     d="m 83.86718,76.96875 c 0,3.60156 -4.01171,8.33203 -8.96093,8.33203 -4.95313,0 -8.96094,-4.72656 -8.96094,-8.33203 0,-3.59766 4.00781,-4.70313 8.96094,-4.70313 4.94922,0 8.96093,1.10547 8.96093,4.70313 z m 0,0"
     fill-opacity="1"
     fill-rule="nonzero"
     id="path391" />
</svg>
