<?xml version="1.0" encoding="UTF-8" standalone="no"?>
<svg
   width="199.70312"
   zoomAndPan="magnify"
   viewBox="0 0 149.77734 149.22656"
   height="198.96875"
   preserveAspectRatio="xMidYMid"
   version="1.0"
   id="svg44"
   sodipodi:docname="avatar.svg"
   inkscape:version="1.2.2 (b0a8486541, 2022-12-01)"
   xmlns:inkscape="http://www.inkscape.org/namespaces/inkscape"
   xmlns:sodipodi="http://sodipodi.sourceforge.net/DTD/sodipodi-0.dtd"
   xmlns="http://www.w3.org/2000/svg"
   xmlns:svg="http://www.w3.org/2000/svg">
  <sodipodi:namedview
     id="namedview46"
     pagecolor="#505050"
     bordercolor="#ffffff"
     borderopacity="1"
     inkscape:showpageshadow="0"
     inkscape:pageopacity="0"
     inkscape:pagecheckerboard="1"
     inkscape:deskcolor="#505050"
     showgrid="false"
     inkscape:zoom="2.054"
     inkscape:cx="100.04869"
     inkscape:cy="99.561831"
     inkscape:window-width="2560"
     inkscape:window-height="1392"
     inkscape:window-x="0"
     inkscape:window-y="25"
     inkscape:window-maximized="1"
     inkscape:current-layer="svg44" />
  <defs
     id="defs14">
    <clipPath
       id="29b0049525">
      <path
         d="m 112.5,112.78125 h 150 v 149.25 h -150 z m 0,0"
         clip-rule="nonzero"
         id="path2" />
    </clipPath>
    <clipPath
       id="bbe5c5db7e">
      <path
         d="m 177,135 h 85.5 V 262.03125 H 177 Z m 0,0"
         clip-rule="nonzero"
         id="path5" />
    </clipPath>
    <clipPath
       id="d4cd070091">
      <path
         d="m 133,193 h 108 v 69.03125 H 133 Z m 0,0"
         clip-rule="nonzero"
         id="path8" />
    </clipPath>
    <clipPath
       id="fd4c13c329">
      <path
         d="m 133,215 h 108 v 47.03125 H 133 Z m 0,0"
         clip-rule="nonzero"
         id="path11" />
    </clipPath>
  </defs>
  <g
     clip-path="url(#29b0049525)"
     id="g18"
     transform="translate(-112.58203,-112.80469)">
    <path
       fill="#aad8f4"
       d="m 262.03125,187.43359 c 0,18.54688 -6.78516,35.52735 -17.99609,48.57813 -1.01172,1.18359 -2.06641,2.33203 -3.15625,3.44922 -2.77735,2.85547 -5.78907,5.49218 -8.99219,7.86718 -12.44141,9.26172 -27.86719,14.73829 -44.57422,14.73829 -0.22656,0 -0.44922,0 -0.67969,-0.008 -10.42578,-0.0859 -20.33984,-2.3164 -29.33203,-6.25781 -5.19922,-2.27734 -10.08594,-5.125 -14.58594,-8.47266 -3.25781,-2.42578 -6.30859,-5.10546 -9.125,-8.01953 -1.03906,-1.0664 -2.03906,-2.16406 -3.00781,-3.28906 -11.21094,-13.05469 -18,-30.03125 -18,-48.58594 0,-41.21484 33.46094,-74.6289 74.73047,-74.6289 28.31641,0 52.95703,15.73828 65.63281,38.9375 4.20703,7.6914 7.08985,16.20312 8.35938,25.23828 0.48047,3.41797 0.72656,6.91015 0.72656,10.45312 z m 0,0"
       fill-opacity="1"
       fill-rule="nonzero"
       id="path16" />
  </g>
  <g
     clip-path="url(#bbe5c5db7e)"
     id="g22"
     transform="translate(-112.58203,-112.80469)">
    <path
       fill="#5ec1ed"
       d="m 262.35937,187.43359 c 0,18.54688 -6.78515,35.52735 -17.99609,48.57813 -1.01172,1.18359 -2.06641,2.33203 -3.15625,3.44922 -2.77734,2.85547 -5.78906,5.49218 -8.99219,7.86718 -12.4414,9.26172 -27.86718,14.73829 -44.57422,14.73829 -0.23046,0 -0.44921,0 -0.67968,-0.008 l -9.04297,-16.04687 27.3789,-110.6875 56.33594,41.65625 c 0.48047,3.41797 0.72656,6.91015 0.72656,10.45312 z m 0,0"
       fill-opacity="1"
       fill-rule="nonzero"
       id="path20" />
  </g>
  <path
     fill="#092838"
     d="m 40.011719,42.902342 c 1.01172,-2.60156 2.45312,-5.05469 4.22656,-7.19531 3.76172,-4.54688 13.87891,-13.78906 20.41016,-12.44922 9.21484,1.89453 17.00781,17.27734 19.01953,25.50781 2.12891,8.6875 1.97656,17.75781 1.80469,26.70313 -0.30469,16.15625 -0.63282,32.523428 -4.94922,48.101558 -0.87891,3.16797 -1.96875,6.39062 -4.14844,8.85156 -3.27734,3.71094 -8.42187,5.07813 -13.30078,5.92969 -10.41016,1.80078 -21.96094,-0.72656 -31.72656,-4.6875 -3.35938,-1.36328 -6.72657,-3.11719 -8.85938,-6.05078 -2.46484,-3.40235 -2.70703,-8.54688 -0.63281,-12.21094 2.64453,-4.66797 6.72656,-4.02344 10.92187,-6.70312 2.65625,-1.69532 4.50391,-5.57422 2.4336,-7.94922 -1.06641,-1.226568 -2.77344,-1.597658 -4.23828,-2.296878 -5.10938,-2.44531 -6.82032,-9.99219 -3.26563,-14.39844 4.02735,-4.98437 12.63281,-5.4414 15.06641,-11.36718 2.10937,-5.11719 -1.88281,-10.4961 -3.53125,-15.78907 -1.42188,-4.57421 -0.97266,-9.51562 0.76953,-13.99609 z m 0,0"
     fill-opacity="1"
     fill-rule="nonzero"
     id="path24" />
  <g
     clip-path="url(#d4cd070091)"
     id="g28"
     transform="translate(-112.58203,-112.80469)">
    <path
       fill="#eec191"
       d="m 221.67578,220.26953 -17.96484,-5.84375 c -3.31641,-1.07812 -5.5625,-4.16797 -5.5625,-7.64844 v -13.76562 h -21.76172 v 13.9375 c 0,3.50781 -2.27735,6.60937 -5.62891,7.66797 l -17.99609,5.67578 c -9.32031,2.83594 -16.37891,10.08203 -19.17969,19.01953 2.82031,2.91406 5.87109,5.59375 9.12891,8.02344 4.49609,3.34375 9.38281,6.19531 14.58593,8.46875 9.1836,4.03125 19.33204,6.26562 30.01172,6.26562 16.70313,0 32.12891,-5.47265 44.57032,-14.73437 3.20703,-2.375 6.21484,-5.01563 8.99218,-7.8711 -2.7539,-9.01953 -9.82812,-16.32812 -19.19531,-19.19531 z m 0,0"
       fill-opacity="1"
       fill-rule="nonzero"
       id="path26" />
  </g>
  <g
     clip-path="url(#fd4c13c329)"
     id="g32"
     transform="translate(-112.58203,-112.80469)">
    <path
       fill="#ed6e4a"
       d="m 221.67578,220.26953 -14.09375,-4.58594 c -11.0625,8.11328 -27.61719,7.51563 -38.92578,-0.40625 l -15.88672,5.00782 c -9.32031,2.83984 -16.37891,10.08203 -19.17969,19.02343 2.81641,2.91407 5.86719,5.59375 9.125,8.01953 4.5,3.34766 9.38672,6.19532 14.58594,8.47266 9.1875,4.03125 19.33203,6.26563 30.01172,6.26563 16.70703,0 32.13281,-5.47657 44.57422,-14.73829 3.20312,-2.375 6.21484,-5.01171 8.99219,-7.86718 -2.76172,-9.01563 -9.83594,-16.32422 -19.20313,-19.19141 z m 0,0"
       fill-opacity="1"
       fill-rule="nonzero"
       id="path30" />
  </g>
  <path
     fill="#fbcb98"
     d="m 98.164059,49.378902 c -0.0586,-16.64453 -10.25781,-28.59765 -23.44922,-28.59765 -0.008,0 -0.0195,0 -0.0234,0 -0.008,0 -0.0195,0 -0.0234,0 -13.1875,0 -23.39453,11.95312 -23.45313,28.59765 -0.0273,7.58985 0.1836,9.48047 0.95704,14.98438 2.40234,17.11719 18.23437,25.02734 22.49609,25.02734 5.21875,0 20.01562,-7.91015 22.41797,-25.02734 0.77344,-5.50391 1.10547,-7.39453 1.07812,-14.98438 z m 0,0"
     fill-opacity="1"
     fill-rule="nonzero"
     id="path34" />
  <path
     fill="#fbcb98"
     d="m 51.214839,51.914062 c -0.69531,-0.75781 -1.76171,-1.125 -2.35937,-0.0781 -0.86719,1.5 -0.77344,3.50391 -0.64844,5.16016 0.0977,1.33984 0.26953,2.6875 0.6211,3.98438 0.30468,1.1289 0.71875,2.67578 1.71875,3.375 0.23046,0.16015 0.54687,0.3164 0.83203,0.38281 0.16015,0.0352 1.12109,0.0508 0.79687,-0.3711"
     fill-opacity="1"
     fill-rule="nonzero"
     id="path36" />
  <path
     fill="#fbcb98"
     d="m 98.039059,51.914062 c 0.69922,-0.75781 1.76172,-1.125 2.359381,-0.0781 0.86719,1.5 0.77344,3.50391 0.65234,5.16016 -0.10156,1.33984 -0.26953,2.6875 -0.62109,3.98438 -0.30469,1.1289 -0.718751,2.67578 -1.722661,3.375 -0.22656,0.16015 -0.54297,0.3164 -0.83203,0.38281 -0.15625,0.0352 -1.11719,0.0508 -0.79687,-0.3711"
     fill-opacity="1"
     fill-rule="nonzero"
     id="path38" />
  <path
     fill="#092838"
     d="m 88.085939,60.097652 c -0.375,3.24219 -3.04688,6.58985 -1.23047,9.25 1.09766,1.60157 3.37109,1.98828 4.60937,3.48047 1.82422,2.19531 0.57032,5.5586 -1.21093,7.78125 -1.78125,2.22266 -4.13672,4.27344 -4.57422,7.08594 -0.75,4.80859 4.29297,8.32422 6.46094,12.683588 2.55468,5.13282 0.49218,12.07032 -4.44532,14.98438 4.98828,0.4375 9.86328,-3.03125 11.73828,-7.67188 1.875001,-4.63672 1.000001,-10.109368 -1.60937,-14.378898 -0.80469,-1.3125 -1.77734,-2.5625 -2.19141,-4.04297 -0.83203,-2.96094 0.82032,-6.78125 2.51172,-9.19141 1.996101,-2.83203 5.488281,-5.08594 3.949221,-9.09375 -0.52344,-1.35156 -1.40234,-2.60937 -1.51953,-4.05469 -0.14453,-1.83984 0.96094,-3.51562 1.96484,-5.07031 1.90235,-2.95703 3.625,-6.17969 3.85938,-9.68359 0.24609,-3.6211 -1.11328,-7.13281 -2.44922,-10.50781 -4.808591,-12.15625 -11.328131,-23.66016 -25.617191,-25.14063 -13.00781,-1.34375 -19.08984,11.33203 -15.5,22.60938 1.53125,4.78906 5.125,8.98046 9.82031,10.80859 3.03125,1.1875 6.37891,1.38281 9.4375,2.50391 3.05469,1.125 6.01563,3.66015 6.02735,6.91015 0.0117,0.2461 0,0.49219 -0.0312,0.73828 z m 0,0"
     fill-opacity="1"
     fill-rule="nonzero"
     id="path40" />
  <path
     fill="#092838"
     d="m 61.738279,44.933592 c 2.4961,-3.19922 4.9961,-6.45312 6.63672,-10.16406 0.78516,-1.78516 1.37109,-3.70703 1.23047,-5.65235 -0.14063,-1.9414 -1.10938,-3.90625 -2.8125,-4.84765 -1.58203,-0.87891 -3.56641,-0.76563 -5.26563,-0.12891 -1.69531,0.63672 -3.16406,1.75 -4.60546,2.84766 -3.10938,2.36328 -6.33985,4.875 -7.96485,8.42578 -1.83984,4.01172 -1.48437,11.25 2.07813,14.42187 4.36328,3.88282 8.01953,-1.46093 10.70312,-4.90234 z m 0,0"
     fill-opacity="1"
     fill-rule="nonzero"
     id="path42" />
</svg>
