<?xml version="1.0" encoding="UTF-8" standalone="no"?>
<svg
   viewBox="0 0 18 19.91"
   version="1.1"
   id="svg4200"
   sodipodi:docname="share-variant-outline.svg"
   width="18"
   height="19.91"
   inkscape:version="1.2.2 (b0a8486541, 2022-12-01)"
   xmlns:inkscape="http://www.inkscape.org/namespaces/inkscape"
   xmlns:sodipodi="http://sodipodi.sourceforge.net/DTD/sodipodi-0.dtd"
   xmlns="http://www.w3.org/2000/svg"
   xmlns:svg="http://www.w3.org/2000/svg">
  <defs
     id="defs4204" />
  <sodipodi:namedview
     id="namedview4202"
     pagecolor="#505050"
     bordercolor="#ffffff"
     borderopacity="1"
     inkscape:showpageshadow="0"
     inkscape:pageopacity="0"
     inkscape:pagecheckerboard="1"
     inkscape:deskcolor="#505050"
     showgrid="false"
     inkscape:zoom="42.791667"
     inkscape:cx="9.0087634"
     inkscape:cy="9.9902629"
     inkscape:window-width="2560"
     inkscape:window-height="1392"
     inkscape:window-x="0"
     inkscape:window-y="25"
     inkscape:window-maximized="1"
     inkscape:current-layer="svg4200" />
  <path
     d="m 15,14.08 c -0.76,0 -1.44,0.3 -1.96,0.77 L 5.91,10.7 C 5.96,10.47 6,10.24 6,10 6,9.76 5.96,9.53 5.91,9.3 L 12.96,5.19 C 13.5,5.69 14.21,6 15,6 16.66,6 18,4.66 18,3 18,1.34 16.66,0 15,0 c -1.66,0 -3,1.34 -3,3 0,0.24 0.04,0.47 0.09,0.7 L 5.04,7.81 C 4.5,7.31 3.79,7 3,7 1.34,7 0,8.34 0,10 c 0,1.66 1.34,3 3,3 0.79,0 1.5,-0.31 2.04,-0.81 l 7.12,4.15 c -0.05,0.21 -0.08,0.43 -0.08,0.66 0,1.61 1.31,2.91 2.92,2.91 1.61,0 2.92,-1.3 2.92,-2.91 0,-1.61 -1.31,-2.92 -2.92,-2.92 M 15,2 c 0.55,0 1,0.45 1,1 0,0.55 -0.45,1 -1,1 C 14.45,4 14,3.55 14,3 14,2.45 14.45,2 15,2 M 3,11 C 2.45,11 2,10.55 2,10 2,9.45 2.45,9 3,9 c 0.55,0 1,0.45 1,1 0,0.55 -0.45,1 -1,1 m 12,7 c -0.55,0 -1,-0.45 -1,-1 0,-0.55 0.45,-1 1,-1 0.55,0 1,0.45 1,1 0,0.55 -0.45,1 -1,1 z"
     id="path4198" />
</svg>
